# xmcd
# 
# Track frame offsets:
#     150
#     12802
#     24430
#     35932
#     48694
#     58516
#     70858
#     86672
#     106972
#     122114
#     139197
#     156422
#     169415
#     182995
#     195855
#     211248
# 
# Disc length: 2942
# 
# Revision: 4
# Processed by: cddbd v1.5.2PL0 Copyright (c) Steve Scherf et al.
# Submitted via: fre:ac v1.1beta1pre5
# 
DISCID=e50b7c10
DTITLE=Albert King - Born Under A Bad Sign [Remastered]
DYEAR=2013
DGENRE=Blues
TTITLE0=Born Under A Bad Sign
TTITLE1=Crosscut Saw
TTITLE2=Kansas City
TTITLE3=Oh, Pretty Woman
TTITLE4=Down Don't Bother Me
TTITLE5=The Hunter
TTITLE6=I Almost Lost My Mind
TTITLE7=Personal Manager
TTITLE8=Laundromat Blues
TTITLE9=As The Years Go Passing By
TTITLE10=The Very Thought Of You
TTITLE11=Born Under A Bad Sign (alternative take)
TTITLE12=Crosscut Saw (alternative take)
TTITLE13=The Hunter (alternative take)
TTITLE14=Personal Manager (alternative take)
TTITLE15=Untitled Instrumental
EXTD=YEAR: 1967
EXTT0=
EXTT1=
EXTT2=
EXTT3=
EXTT4=
EXTT5=
EXTT6=
EXTT7=
EXTT8=
EXTT9=
EXTT10=
EXTT11=
EXTT12=
EXTT13=
EXTT14=
EXTT15=
PLAYORDER=
